<svg width="20" height="12" viewBox="0 0 20 12" fill="none" xmlns="http://www.w3.org/2000/svg">
<path d="M0.440231 0.440327C0.722196 0.158447 1.10457 9.53674e-05 1.50327 9.53674e-05C1.90197 9.53674e-05 2.28434 0.158447 2.56631 0.440327L10.0091 7.8831L17.4518 0.440327C17.7354 0.166436 18.1152 0.0148821 18.5095 0.0183086C18.9037 0.0217342 19.2808 0.179865 19.5596 0.458643C19.8384 0.737421 19.9965 1.11454 19.9999 1.50878C20.0034 1.90301 19.8518 2.28282 19.5779 2.5664L11.0721 11.0722C10.7902 11.3541 10.4078 11.5125 10.0091 11.5125C9.61038 11.5125 9.228 11.3541 8.94604 11.0722L0.440231 2.5664C0.158351 2.28444 0 1.90206 0 1.50337C0 1.10467 0.158351 0.722292 0.440231 0.440327Z" fill="#58BD97"/>
</svg>
